# xmcd CD database file
#
# Track frame offsets:
#	150
#	49204
#	70574
#	104992
#	130490
#	156973
#	187171
#
# Disc length: 2948 seconds
#
# Revision: 0
# Processed by: cddbd v1.5.2PL0 Copyright (c) Steve Scherf et al.
# Submitted via: CDex 1.51
#
DISCID=6b0b8207
DTITLE=New Age Harmony - Dawn of Time
DYEAR=1900
DGENRE=New Age
TTITLE0=Awakening
TTITLE1=First Tide
TTITLE2=Birth Of A Delta
TTITLE3=Cradle Of Life
TTITLE4=Ice And Fire
TTITLE5=Sun Dance
TTITLE6=Into The Valley
EXTD=
EXTT0=
EXTT1=
EXTT2=
EXTT3=
EXTT4=
EXTT5=
EXTT6=
PLAYORDER=
